<svg id="Layer_1" data-name="Layer 1" xmlns="http://www.w3.org/2000/svg" width="807" height="304" viewBox="0 0 807 304"><defs><style>.cls-1{fill:#00ae8d;}.cls-2{fill:#004750;}</style></defs><title>fizbuz-logo</title><polygon class="cls-1" points="3.5 299 43.81 299 43.81 213.48 108.02 213.48 108.02 182.38 43.81 182.38 43.81 129.68 127.6 129.68 127.6 98.01 3.5 98.01 3.5 299"/><polygon class="cls-1" points="321.2 172.01 321.2 139.48 205.44 139.48 205.44 172.59 274.84 172.59 205.16 266.46 205.16 299 322.06 299 322.06 265.88 250.94 265.88 321.2 172.01"/><path class="cls-1" d="M468.77,147a69.75,69.75,0,0,0-37-10.08q-17.58,0-31.25,7.2a57.76,57.76,0,0,0-21.45,18.72V85.92H338.76V299h40.31V276.25a60.71,60.71,0,0,0,21.45,18.28q13.39,7.05,31.25,7.06a68.31,68.31,0,0,0,37-10.37Q485.32,280.86,495,262t9.65-43.33q0-24.47-9.65-43T468.77,147Zm-11.23,97A42.81,42.81,0,0,1,442,260.41a40.63,40.63,0,0,1-41.47.14A41.59,41.59,0,0,1,385,244.29q-5.91-10.65-5.91-25T385,194.19a41.55,41.55,0,0,1,15.54-16.27,40.22,40.22,0,0,1,20.59-5.62A41.72,41.72,0,0,1,442,177.77a41,41,0,0,1,15.55,16q5.9,10.51,5.9,24.91Q463.44,233.34,457.54,244Z"/><path class="cls-1" d="M629.58,227.3q0,19-9.5,29.22t-26.2,10.23q-16.41,0-25.92-10.23t-9.5-29.22V139.48H518.15v93.58q0,21.32,8.2,36.71A55.76,55.76,0,0,0,549,293.09q14.4,7.94,33.11,7.92a63.09,63.09,0,0,0,27.21-5.9,53.16,53.16,0,0,0,20.3-16.27V299h40.6V139.48h-40.6Z"/><polygon class="cls-1" points="732.38 265.88 802.64 172.01 802.64 139.48 686.88 139.48 686.88 172.59 756.28 172.59 686.6 266.46 686.6 299 803.5 299 803.5 265.88 732.38 265.88"/><path class="cls-1" d="M168.59,141.74a82.36,82.36,0,0,1-17.71-1.59c-.91-.2-1.71-.42-2.45-.65V299h40.31V139.5c-.73.23-1.53.45-2.44.65A82.49,82.49,0,0,1,168.59,141.74Z"/><circle class="cls-2" cx="168.58" cy="99.14" r="24" transform="translate(-22.11 142.53) rotate(-43.28)"/><circle class="cls-1" cx="126.15" cy="59.04" r="19.19" transform="translate(-1.69 114.32) rotate(-48.46)"/><circle class="cls-1" cx="182.98" cy="31.21" r="28.79"/></svg>